<?xml version="1.0" encoding="UTF-8"?>
<svg xmlns="http://www.w3.org/2000/svg" xmlns:xlink="http://www.w3.org/1999/xlink" width="200px" height="50px" viewBox="0 0 201 50" version="1.1">
<g id="surface1">
<path style=" stroke:none;fill-rule:nonzero;fill:rgb(0%,0%,0%);fill-opacity:1;" d="M 19.535156 2.996094 L 18.53125 3.113281 L 19.394531 3.675781 C 19.855469 3.980469 20.234375 4.320312 20.234375 4.441406 C 20.234375 4.5625 20.355469 4.621094 20.515625 4.5625 C 20.675781 4.5 20.835938 4.542969 20.898438 4.683594 C 20.9375 4.804688 21.277344 4.921875 21.660156 4.921875 C 22.039062 4.945312 22.640625 5.003906 23 5.105469 C 23.480469 5.226562 23.640625 5.183594 23.640625 4.984375 C 23.640625 4.78125 24.242188 4.722656 26.425781 4.722656 L 29.230469 4.722656 L 29.832031 5.304688 C 30.433594 5.886719 30.65625 6.691406 30.253906 6.894531 C 30.132812 6.953125 30.152344 6.972656 30.292969 6.953125 C 30.433594 6.914062 30.65625 7.035156 30.796875 7.214844 C 31.015625 7.515625 31.035156 7.496094 31.054688 7.195312 C 31.054688 7.011719 30.933594 6.8125 30.816406 6.753906 C 30.613281 6.652344 30.613281 6.613281 30.816406 6.511719 C 30.933594 6.449219 31.054688 6.269531 31.054688 6.109375 C 31.054688 5.628906 30.496094 4.683594 30.113281 4.542969 C 29.851562 4.441406 29.894531 4.542969 30.253906 4.921875 L 30.753906 5.445312 L 29.773438 4.902344 C 28.832031 4.382812 28.773438 4.382812 26.527344 4.5 L 24.242188 4.640625 L 23.203125 4.019531 C 22.320312 3.476562 20.65625 2.734375 20.558594 2.855469 C 20.558594 2.855469 20.097656 2.933594 19.535156 2.996094 Z M 20.636719 3.617188 C 20.636719 3.71875 20.535156 3.816406 20.417969 3.816406 C 20.316406 3.816406 20.277344 3.71875 20.335938 3.617188 C 20.398438 3.496094 20.496094 3.417969 20.558594 3.417969 C 20.597656 3.417969 20.636719 3.496094 20.636719 3.617188 Z M 21.378906 4.058594 C 21.316406 4.21875 21.257812 4.160156 21.257812 3.9375 C 21.238281 3.71875 21.296875 3.597656 21.359375 3.675781 C 21.417969 3.738281 21.4375 3.917969 21.378906 4.058594 Z M 21.378906 4.058594 "/>
<path style=" stroke:none;fill-rule:nonzero;fill:rgb(0%,0%,0%);fill-opacity:1;" d="M 26.546875 5.183594 C 26.007812 5.226562 25.464844 5.324219 25.367188 5.425781 C 25.246094 5.546875 25.785156 5.566406 26.769531 5.507812 C 28.289062 5.386719 28.390625 5.40625 29.011719 5.929688 C 29.351562 6.230469 29.652344 6.371094 29.652344 6.269531 C 29.652344 5.96875 28.652344 5.304688 28.050781 5.203125 C 27.769531 5.144531 27.109375 5.144531 26.546875 5.183594 Z M 26.546875 5.183594 "/>
<path style=" stroke:none;fill-rule:nonzero;fill:rgb(0%,0%,0%);fill-opacity:1;" d="M 29.671875 6.871094 C 29.671875 7.054688 29.433594 7.617188 29.171875 8.117188 C 28.773438 8.863281 28.730469 9.042969 28.992188 9.042969 C 29.191406 9.042969 29.253906 9.164062 29.171875 9.363281 C 29.113281 9.546875 29.050781 9.765625 29.050781 9.867188 C 29.050781 9.949219 28.910156 9.988281 28.75 9.925781 C 28.449219 9.808594 28.351562 10.109375 28.429688 10.992188 C 28.449219 11.253906 28.390625 11.453125 28.289062 11.453125 C 28.171875 11.453125 28.050781 11.636719 27.988281 11.855469 C 27.929688 12.078125 27.96875 12.257812 28.070312 12.257812 C 28.171875 12.257812 28.25 12.160156 28.25 12.019531 C 28.25 11.898438 28.3125 11.835938 28.371094 11.917969 C 28.550781 12.078125 28.25 12.882812 28.050781 12.761719 C 27.949219 12.699219 27.808594 12.761719 27.730469 12.882812 C 27.667969 13.003906 27.710938 13.183594 27.871094 13.261719 C 28.089844 13.40625 28.070312 13.707031 27.75 14.910156 C 27.550781 15.714844 27.25 16.5 27.109375 16.640625 C 26.96875 16.78125 26.847656 17.121094 26.847656 17.382812 C 26.847656 17.964844 26.226562 19.957031 25.988281 20.117188 C 25.886719 20.175781 25.964844 20.378906 26.125 20.558594 C 26.488281 20.898438 26.566406 21.203125 26.246094 21 C 26.007812 20.859375 25.765625 21.765625 25.90625 22.308594 C 25.964844 22.527344 25.886719 22.730469 25.726562 22.789062 C 25.566406 22.851562 25.445312 22.992188 25.445312 23.089844 C 25.445312 23.210938 25.585938 23.25 25.746094 23.191406 C 26.105469 23.050781 26.125 22.949219 25.664062 24.617188 C 25.464844 25.402344 25.183594 26.648438 25.042969 27.390625 C 24.90625 28.136719 24.746094 28.71875 24.683594 28.65625 C 24.644531 28.597656 24.421875 28.636719 24.222656 28.757812 C 23.742188 29 23.722656 29.683594 24.203125 29.804688 C 24.464844 29.882812 24.445312 29.902344 24.101562 29.921875 C 23.5625 29.945312 23.300781 30.324219 23.664062 30.566406 C 23.882812 30.726562 23.863281 30.808594 23.5625 31.050781 C 23.34375 31.210938 23.28125 31.351562 23.402344 31.351562 C 23.863281 31.351562 23.640625 31.953125 23.140625 32.074219 C 22.859375 32.132812 22.640625 32.296875 22.640625 32.394531 C 22.640625 32.515625 22.820312 32.554688 23.042969 32.496094 C 23.503906 32.375 23.601562 32.859375 23.140625 33.039062 C 22.980469 33.097656 22.902344 33.28125 22.960938 33.460938 C 23.019531 33.621094 22.980469 33.761719 22.859375 33.761719 C 22.699219 33.761719 22.679688 33.863281 22.839844 34.144531 C 23.082031 34.625 23.101562 34.828125 22.859375 34.6875 C 22.582031 34.503906 22.398438 35.230469 22.679688 35.410156 C 22.902344 35.53125 22.902344 35.609375 22.679688 35.730469 C 22.539062 35.832031 22.339844 36.195312 22.238281 36.574219 C 22.140625 36.9375 22.097656 37.179688 22.179688 37.117188 C 22.238281 37.039062 22.558594 37.179688 22.882812 37.398438 C 23.460938 37.820312 23.601562 38.566406 23.101562 38.726562 C 22.960938 38.785156 22.902344 38.664062 22.960938 38.445312 C 23.019531 38.203125 22.902344 38.003906 22.558594 37.863281 C 22.121094 37.660156 22.039062 37.679688 21.9375 37.980469 C 21.878906 38.183594 21.578125 38.445312 21.257812 38.546875 C 20.738281 38.726562 20.71875 38.785156 20.738281 40.011719 C 20.757812 41.058594 20.835938 41.296875 21.15625 41.417969 C 21.359375 41.480469 21.597656 41.519531 21.679688 41.480469 C 21.738281 41.4375 22.140625 41.980469 22.539062 42.703125 C 22.921875 43.429688 23.421875 44.089844 23.601562 44.191406 C 24.164062 44.472656 26.246094 44.613281 26.808594 44.394531 C 28.191406 43.871094 29.050781 42.484375 29.652344 39.851562 C 30.714844 35.269531 31.777344 32.4375 33 30.808594 C 33.660156 29.945312 34.140625 29.824219 34.78125 30.324219 C 35.484375 30.886719 35.824219 30.847656 36.105469 30.226562 C 36.566406 29.21875 35.484375 26.445312 33.980469 24.777344 C 32.960938 23.632812 32.398438 23.351562 31.957031 23.714844 C 31.535156 24.054688 31.578125 24.699219 32.078125 25.804688 C 32.296875 26.304688 32.417969 26.828125 32.359375 26.929688 C 32.296875 27.03125 32.316406 27.289062 32.4375 27.492188 C 32.578125 27.773438 32.519531 28.054688 32.15625 28.65625 C 30.933594 30.726562 30.292969 31.894531 30.175781 32.296875 C 30.015625 32.816406 29.652344 32.917969 29.652344 32.457031 C 29.652344 32.273438 29.472656 32.15625 29.230469 32.15625 C 28.851562 32.15625 28.8125 32.074219 28.933594 31.550781 C 28.992188 31.167969 28.972656 30.96875 28.851562 31.050781 C 28.609375 31.191406 28.609375 30.988281 28.851562 30.445312 L 29.03125 30.042969 L 29.050781 30.445312 C 29.070312 30.6875 29.230469 30.445312 29.472656 29.84375 C 30.09375 28.335938 31.394531 26.667969 31.878906 26.789062 C 32.199219 26.867188 32.257812 26.828125 32.136719 26.46875 C 31.816406 25.421875 31.738281 25.441406 30.675781 26.707031 C 30.113281 27.390625 29.652344 28.035156 29.652344 28.15625 C 29.652344 28.253906 29.511719 28.335938 29.351562 28.335938 C 29.191406 28.335938 29.050781 28.15625 29.050781 27.953125 C 29.050781 27.734375 28.910156 27.433594 28.75 27.25 C 28.492188 26.988281 28.492188 26.808594 28.75 25.523438 C 28.910156 24.738281 29.050781 24.054688 29.050781 23.996094 C 29.050781 23.953125 29.230469 23.914062 29.433594 23.914062 C 29.914062 23.914062 30.132812 23.292969 29.953125 22.386719 C 29.851562 21.824219 29.753906 21.703125 29.472656 21.804688 C 29.191406 21.886719 29.070312 21.785156 28.992188 21.300781 C 28.910156 20.980469 28.910156 20.558594 28.992188 20.378906 C 29.050781 20.195312 28.992188 19.976562 28.832031 19.875 C 28.609375 19.734375 28.609375 19.695312 28.871094 19.695312 C 29.113281 19.695312 29.171875 19.554688 29.09375 19.171875 C 29.011719 18.710938 29.050781 18.667969 29.433594 18.789062 C 29.8125 18.910156 29.851562 18.851562 29.832031 18.246094 C 29.8125 17.5625 29.511719 16.378906 29.472656 16.820312 C 29.453125 16.960938 29.371094 17.082031 29.273438 17.082031 C 29.152344 17.082031 29.09375 16.902344 29.113281 16.660156 C 29.132812 16.359375 29.253906 16.277344 29.511719 16.359375 C 29.8125 16.4375 29.875 16.378906 29.773438 16.015625 C 29.632812 15.433594 30.035156 13.0625 30.292969 13.0625 C 30.394531 13.0625 30.433594 12.980469 30.375 12.882812 C 30.3125 12.800781 30.355469 12.441406 30.453125 12.097656 C 30.554688 11.675781 30.554688 11.414062 30.414062 11.335938 C 30.09375 11.132812 29.832031 11.695312 29.953125 12.398438 C 30.015625 12.742188 29.972656 13.082031 29.875 13.164062 C 29.753906 13.222656 29.574219 13.804688 29.433594 14.449219 C 29.3125 15.09375 29.132812 15.734375 29.050781 15.894531 C 28.691406 16.480469 28.671875 15.894531 29.03125 14.410156 C 29.253906 13.464844 29.3125 12.863281 29.191406 12.863281 C 29.070312 12.863281 29.132812 12.699219 29.3125 12.5 C 29.511719 12.277344 29.652344 11.796875 29.652344 11.355469 C 29.652344 10.511719 30.035156 9.246094 30.292969 9.246094 C 30.375 9.246094 30.394531 9.546875 30.335938 9.886719 C 30.253906 10.390625 30.273438 10.46875 30.433594 10.25 C 30.554688 10.089844 30.65625 9.785156 30.65625 9.585938 C 30.65625 9.386719 30.816406 9.246094 31.035156 9.246094 C 31.597656 9.246094 31.738281 8.902344 31.257812 8.742188 C 31.035156 8.660156 30.855469 8.421875 30.835938 8.179688 C 30.816406 7.835938 30.796875 7.816406 30.714844 8.078125 C 30.574219 8.640625 30.292969 8.5 30.414062 7.9375 C 30.472656 7.578125 30.414062 7.4375 30.195312 7.4375 C 30.015625 7.4375 29.832031 7.234375 29.792969 6.972656 C 29.734375 6.710938 29.691406 6.671875 29.671875 6.871094 Z M 29.773438 9.445312 L 29.472656 10.148438 L 29.453125 9.386719 C 29.453125 8.984375 29.574219 8.460938 29.714844 8.21875 C 29.953125 7.835938 29.953125 7.835938 30.015625 8.28125 C 30.054688 8.539062 29.933594 9.0625 29.773438 9.445312 Z M 29.453125 10.75 C 29.453125 10.953125 28.871094 12.257812 28.792969 12.257812 C 28.730469 12.257812 28.792969 11.898438 28.890625 11.453125 C 29.011719 11.011719 29.171875 10.652344 29.273438 10.652344 C 29.371094 10.652344 29.453125 10.691406 29.453125 10.75 Z M 28.75 13.828125 C 28.710938 14.007812 28.671875 14.207031 28.652344 14.269531 C 28.632812 14.328125 28.609375 14.449219 28.632812 14.550781 C 28.691406 14.789062 28.011719 16.316406 27.910156 16.199219 C 27.769531 16.058594 28.492188 13.261719 28.652344 13.363281 C 28.730469 13.425781 28.792969 13.625 28.75 13.828125 Z M 29.050781 18.105469 C 29.050781 18.207031 29.171875 18.246094 29.3125 18.167969 C 29.433594 18.085938 29.492188 18.105469 29.394531 18.1875 C 29.191406 18.429688 28.449219 18.527344 28.449219 18.328125 C 28.449219 18.105469 28.671875 17.886719 28.890625 17.886719 C 28.972656 17.886719 29.050781 17.988281 29.050781 18.105469 Z M 28.851562 19.011719 C 28.851562 19.191406 28.75 19.292969 28.609375 19.253906 C 28.25 19.132812 28.191406 18.691406 28.53125 18.691406 C 28.710938 18.691406 28.851562 18.832031 28.851562 19.011719 Z M 28.171875 19.796875 C 28.109375 19.976562 27.949219 20.054688 27.851562 19.996094 C 27.691406 19.894531 27.710938 19.773438 27.871094 19.574219 C 28.152344 19.210938 28.351562 19.351562 28.171875 19.796875 Z M 26.707031 19.894531 C 26.648438 20.117188 26.566406 20.296875 26.527344 20.296875 C 26.488281 20.296875 26.449219 20.117188 26.449219 19.894531 C 26.449219 19.675781 26.527344 19.492188 26.628906 19.492188 C 26.726562 19.492188 26.769531 19.675781 26.707031 19.894531 Z M 28.652344 20.296875 C 28.652344 20.398438 28.492188 20.5 28.3125 20.5 C 28.011719 20.5 27.988281 20.457031 28.25 20.296875 C 28.632812 20.054688 28.652344 20.054688 28.652344 20.296875 Z M 28.511719 21.242188 C 28.371094 21.28125 28.128906 21.28125 28.011719 21.242188 C 27.871094 21.183594 27.96875 21.140625 28.25 21.140625 C 28.53125 21.140625 28.632812 21.183594 28.511719 21.242188 Z M 26.449219 21.382812 C 26.449219 21.441406 26.367188 21.542969 26.246094 21.605469 C 26.148438 21.664062 26.046875 21.625 26.046875 21.523438 C 26.046875 21.402344 26.148438 21.300781 26.246094 21.300781 C 26.367188 21.300781 26.449219 21.34375 26.449219 21.382812 Z M 27.808594 21.863281 C 27.851562 22.003906 27.75 22.105469 27.570312 22.105469 C 27.390625 22.105469 27.25 21.964844 27.25 21.785156 C 27.25 21.441406 27.691406 21.503906 27.808594 21.863281 Z M 29.152344 22.308594 C 29.09375 22.40625 28.910156 22.507812 28.75 22.507812 C 28.589844 22.507812 28.410156 22.40625 28.351562 22.308594 C 28.269531 22.1875 28.449219 22.105469 28.75 22.105469 C 29.050781 22.105469 29.230469 22.1875 29.152344 22.308594 Z M 27.167969 23.453125 C 27.230469 24.054688 26.949219 24.519531 26.527344 24.519531 C 26.347656 24.519531 26.246094 24.277344 26.246094 23.8125 C 26.246094 23.292969 26.308594 23.152344 26.546875 23.230469 C 26.746094 23.3125 26.847656 23.230469 26.847656 22.992188 C 26.847656 22.46875 27.109375 22.828125 27.167969 23.453125 Z M 27.949219 23.511719 C 28.011719 23.613281 27.988281 23.714844 27.871094 23.714844 C 27.769531 23.714844 27.609375 23.613281 27.550781 23.511719 C 27.488281 23.390625 27.507812 23.3125 27.628906 23.3125 C 27.730469 23.3125 27.890625 23.390625 27.949219 23.511719 Z M 28.691406 24.15625 C 28.652344 24.636719 28.511719 25.101562 28.410156 25.222656 C 28.269531 25.363281 28.25 25.28125 28.332031 25 C 28.410156 24.738281 28.351562 24.476562 28.152344 24.316406 C 27.890625 24.09375 27.910156 24.035156 28.3125 23.695312 C 28.550781 23.492188 28.75 23.332031 28.75 23.3125 C 28.75 23.3125 28.730469 23.695312 28.691406 24.15625 Z M 27.648438 24.597656 C 27.648438 24.757812 27.570312 24.960938 27.449219 25.019531 C 27.347656 25.082031 27.25 24.960938 27.25 24.738281 C 27.25 24.496094 27.347656 24.316406 27.449219 24.316406 C 27.570312 24.316406 27.648438 24.4375 27.648438 24.597656 Z M 34.621094 26.246094 C 35.363281 27.371094 35.464844 28.214844 34.882812 28.535156 C 34.402344 28.777344 34.222656 28.558594 34.261719 27.773438 C 34.320312 26.867188 34.28125 26.6875 33.980469 26.789062 C 33.71875 26.890625 33.097656 26.367188 32.757812 25.722656 C 32.660156 25.542969 32.777344 25.582031 33.058594 25.824219 C 33.5 26.1875 33.519531 26.207031 33.398438 25.863281 C 33.238281 25.421875 33.398438 25.058594 33.71875 25.179688 C 33.859375 25.222656 34.261719 25.703125 34.621094 26.246094 Z M 26.746094 25.523438 C 26.808594 25.621094 26.726562 25.722656 26.546875 25.722656 C 26.367188 25.722656 26.285156 25.621094 26.347656 25.523438 C 26.40625 25.402344 26.507812 25.320312 26.546875 25.320312 C 26.585938 25.320312 26.6875 25.402344 26.746094 25.523438 Z M 25.988281 25.964844 C 25.925781 26.125 25.867188 26.066406 25.867188 25.84375 C 25.847656 25.621094 25.90625 25.503906 25.964844 25.582031 C 26.027344 25.644531 26.046875 25.824219 25.988281 25.964844 Z M 26.449219 26.75 C 26.308594 26.96875 26.167969 27.128906 26.125 27.070312 C 25.988281 26.929688 26.265625 26.328125 26.46875 26.328125 C 26.585938 26.328125 26.566406 26.507812 26.449219 26.75 Z M 25.726562 27.3125 C 25.644531 27.652344 25.546875 27.914062 25.503906 27.855469 C 25.445312 27.8125 25.464844 27.472656 25.546875 27.128906 C 25.726562 26.304688 25.886719 26.46875 25.726562 27.3125 Z M 28.152344 26.726562 C 28.210938 26.828125 28.128906 26.929688 27.96875 26.929688 C 27.808594 26.929688 27.609375 26.828125 27.550781 26.726562 C 27.488281 26.609375 27.570312 26.527344 27.730469 26.527344 C 27.890625 26.527344 28.089844 26.609375 28.152344 26.726562 Z M 28.050781 27.574219 C 28.050781 27.714844 27.949219 27.972656 27.851562 28.136719 C 27.691406 28.375 27.648438 28.316406 27.648438 27.875 C 27.648438 27.574219 27.75 27.332031 27.851562 27.332031 C 27.96875 27.332031 28.050781 27.453125 28.050781 27.574219 Z M 28.773438 28.253906 C 28.710938 28.417969 28.570312 28.535156 28.449219 28.535156 C 28.230469 28.535156 28.171875 27.671875 28.390625 27.453125 C 28.589844 27.25 28.910156 27.914062 28.773438 28.253906 Z M 25.964844 28.839844 C 25.804688 29 25.605469 29.140625 25.527344 29.140625 C 25.464844 29.140625 25.503906 29 25.644531 28.839844 C 25.785156 28.675781 25.988281 28.535156 26.085938 28.535156 C 26.1875 28.535156 26.148438 28.675781 25.964844 28.839844 Z M 27.75 28.738281 C 27.808594 28.839844 27.769531 28.9375 27.667969 28.9375 C 27.550781 28.9375 27.449219 28.839844 27.449219 28.738281 C 27.449219 28.617188 27.488281 28.535156 27.53125 28.535156 C 27.589844 28.535156 27.691406 28.617188 27.75 28.738281 Z M 29.050781 28.917969 C 29.050781 29.019531 28.832031 29.703125 28.550781 30.425781 C 28.269531 31.167969 28.050781 31.914062 28.070312 32.113281 C 28.070312 32.316406 28.128906 32.355469 28.191406 32.195312 C 28.230469 32.074219 28.390625 31.953125 28.511719 31.953125 C 28.609375 31.953125 28.652344 32.011719 28.589844 32.09375 C 28.511719 32.15625 28.632812 32.335938 28.851562 32.496094 C 29.070312 32.65625 29.253906 32.9375 29.253906 33.140625 C 29.253906 33.320312 29.332031 33.5625 29.433594 33.660156 C 29.652344 33.921875 28.53125 37.980469 28.128906 38.382812 C 27.871094 38.644531 27.851562 38.644531 27.96875 38.324219 C 28.03125 38.144531 28.03125 37.839844 27.96875 37.660156 C 27.871094 37.398438 27.789062 37.378906 27.550781 37.582031 C 27.390625 37.722656 27.289062 37.902344 27.347656 37.980469 C 27.488281 38.203125 27.25 38.785156 27.027344 38.785156 C 26.90625 38.785156 26.90625 38.644531 27.027344 38.425781 C 27.148438 38.183594 27.109375 37.863281 26.847656 37.339844 C 26.546875 36.695312 26.527344 36.554688 26.769531 36.355469 C 26.929688 36.234375 27.308594 36.171875 27.648438 36.253906 C 28.332031 36.375 28.390625 36.292969 27.929688 35.8125 C 27.628906 35.53125 27.628906 35.46875 27.929688 35.25 C 28.230469 35.046875 28.230469 35.007812 27.949219 34.886719 C 27.328125 34.644531 27.1875 33.761719 27.550781 32.09375 C 27.730469 31.230469 27.828125 30.304688 27.769531 30.023438 C 27.667969 29.640625 27.75 29.402344 28.070312 29.121094 C 28.53125 28.71875 29.050781 28.617188 29.050781 28.917969 Z M 26.847656 29.421875 C 26.847656 29.582031 26.769531 29.78125 26.648438 29.84375 C 26.546875 29.902344 26.449219 29.78125 26.449219 29.5625 C 26.449219 29.320312 26.546875 29.140625 26.648438 29.140625 C 26.769531 29.140625 26.847656 29.261719 26.847656 29.421875 Z M 26.246094 29.722656 C 26.246094 29.945312 26.347656 30.144531 26.488281 30.183594 C 26.609375 30.226562 26.648438 30.386719 26.566406 30.507812 C 26.367188 30.828125 26.046875 30.808594 26.046875 30.464844 C 26.046875 30.304688 25.945312 30.144531 25.828125 30.105469 C 25.585938 30.023438 25.804688 29.339844 26.066406 29.339844 C 26.167969 29.339844 26.246094 29.523438 26.246094 29.722656 Z M 25.644531 30.628906 C 25.644531 30.769531 25.464844 31.050781 25.226562 31.269531 C 24.882812 31.570312 24.824219 31.792969 24.945312 32.496094 C 25.023438 33.058594 24.964844 33.519531 24.785156 33.902344 C 24.625 34.203125 24.421875 34.949219 24.34375 35.511719 C 24.261719 36.09375 24.101562 36.636719 24.003906 36.695312 C 23.882812 36.777344 23.824219 36.714844 23.882812 36.554688 C 23.941406 36.394531 23.824219 36.054688 23.621094 35.792969 C 23 35.007812 23.261719 34.605469 23.921875 35.289062 C 24.363281 35.710938 24.34375 35.230469 23.921875 34.746094 C 23.664062 34.445312 23.640625 34.285156 23.84375 33.683594 C 24.082031 32.898438 24.464844 32.859375 24.324219 33.621094 C 24.261719 33.902344 24.324219 33.84375 24.464844 33.460938 C 24.625 33.078125 24.625 32.859375 24.503906 32.816406 C 24.261719 32.738281 24.625 31.148438 24.882812 31.148438 C 24.964844 31.148438 25.042969 30.988281 25.042969 30.789062 C 25.042969 30.585938 25.105469 30.34375 25.164062 30.285156 C 25.34375 30.105469 25.644531 30.324219 25.644531 30.628906 Z M 27.007812 30.746094 C 26.867188 30.96875 26.6875 31.148438 26.609375 31.148438 C 26.507812 31.148438 26.546875 30.96875 26.6875 30.746094 C 26.828125 30.527344 27.007812 30.34375 27.089844 30.34375 C 27.1875 30.34375 27.148438 30.527344 27.007812 30.746094 Z M 26.449219 31.550781 C 26.449219 31.652344 26.367188 31.753906 26.246094 31.753906 C 26.148438 31.753906 26.046875 31.652344 26.046875 31.550781 C 26.046875 31.429688 26.148438 31.351562 26.246094 31.351562 C 26.367188 31.351562 26.449219 31.429688 26.449219 31.550781 Z M 25.785156 34.503906 C 25.726562 34.566406 25.566406 34.546875 25.445312 34.464844 C 25.265625 34.34375 25.265625 34.265625 25.464844 34.144531 C 25.746094 33.984375 26.007812 34.285156 25.785156 34.503906 Z M 24.90625 34.464844 C 24.84375 34.644531 24.746094 34.746094 24.703125 34.6875 C 24.644531 34.625 24.664062 34.503906 24.746094 34.386719 C 24.925781 34.0625 25.042969 34.125 24.90625 34.464844 Z M 27.230469 35.230469 C 26.988281 36.074219 26.769531 36.195312 26.929688 35.390625 C 26.988281 35.027344 27.046875 34.566406 27.046875 34.386719 C 27.046875 34.125 27.089844 34.125 27.230469 34.34375 C 27.328125 34.503906 27.328125 34.886719 27.230469 35.230469 Z M 23.441406 36.476562 C 23.582031 36.65625 23.664062 36.835938 23.601562 36.898438 C 23.441406 37.058594 22.441406 36.535156 22.558594 36.355469 C 22.71875 36.074219 23.160156 36.152344 23.441406 36.476562 Z M 21.640625 39.109375 C 21.640625 39.269531 21.558594 39.347656 21.4375 39.289062 C 21.339844 39.226562 21.238281 39.085938 21.238281 38.96875 C 21.238281 38.867188 21.339844 38.785156 21.4375 38.785156 C 21.558594 38.785156 21.640625 38.925781 21.640625 39.109375 Z M 25.445312 39.1875 C 25.445312 39.289062 25.40625 39.390625 25.367188 39.390625 C 25.304688 39.390625 25.207031 39.289062 25.144531 39.1875 C 25.085938 39.066406 25.125 38.988281 25.226562 38.988281 C 25.34375 38.988281 25.445312 39.066406 25.445312 39.1875 Z M 26.148438 39.648438 C 26.148438 40.171875 25.746094 40.152344 25.6875 39.609375 C 25.625 39.289062 25.707031 39.167969 25.886719 39.226562 C 26.027344 39.289062 26.148438 39.46875 26.148438 39.648438 Z M 25.246094 40.113281 C 25.246094 40.375 25.40625 40.414062 26.226562 40.292969 C 27.109375 40.171875 27.25 40.214844 27.449219 40.59375 C 27.589844 40.855469 27.609375 40.996094 27.488281 40.917969 C 27.367188 40.855469 27.148438 40.917969 26.988281 41.097656 C 26.726562 41.359375 26.648438 41.359375 26.449219 41.097656 C 26.285156 40.894531 26.027344 40.835938 25.707031 40.917969 C 25.386719 40.996094 25.144531 40.957031 25.023438 40.777344 C 24.785156 40.394531 24.804688 39.789062 25.042969 39.789062 C 25.164062 39.789062 25.246094 39.933594 25.246094 40.113281 Z M 24.402344 41.417969 C 25.246094 42.402344 25.367188 42.683594 24.882812 42.421875 C 24.34375 42.121094 24.242188 42.140625 24.242188 42.523438 C 24.242188 42.726562 24.082031 42.644531 23.742188 42.242188 C 23.179688 41.578125 23.082031 41.21875 23.542969 41.601562 C 23.722656 41.742188 23.921875 41.800781 24.003906 41.71875 C 24.082031 41.640625 23.984375 41.460938 23.78125 41.316406 C 23.402344 41.015625 23.34375 40.796875 23.664062 40.796875 C 23.78125 40.796875 24.101562 41.078125 24.402344 41.417969 Z M 26.148438 42.023438 C 26.226562 42.140625 26.246094 42.261719 26.207031 42.304688 C 26.066406 42.445312 25.246094 42.164062 25.246094 41.980469 C 25.246094 41.71875 25.988281 41.761719 26.148438 42.023438 Z M 26.148438 42.023438 "/>
<path style=" stroke:none;fill-rule:nonzero;fill:rgb(0%,0%,0%);fill-opacity:1;" d="M 28.449219 34.164062 C 28.449219 34.386719 28.589844 34.566406 28.75 34.566406 C 28.910156 34.566406 29.050781 34.445312 29.050781 34.285156 C 29.050781 34.125 28.910156 33.964844 28.75 33.882812 C 28.550781 33.800781 28.449219 33.902344 28.449219 34.164062 Z M 28.449219 34.164062 "/>
<path style=" stroke:none;fill-rule:nonzero;fill:rgb(0%,0%,0%);fill-opacity:1;" d="M 28.171875 36.898438 C 28.011719 37.320312 28.011719 37.378906 28.230469 37.378906 C 28.332031 37.378906 28.449219 37.199219 28.511719 36.976562 C 28.632812 36.496094 28.351562 36.433594 28.171875 36.898438 Z M 28.171875 36.898438 "/>
<path style=" stroke:none;fill-rule:nonzero;fill:rgb(0%,0%,0%);fill-opacity:1;" d="M 79.460938 8.902344 C 79.082031 9.183594 79.082031 9.203125 79.601562 9.546875 C 79.902344 9.746094 80.242188 10.230469 80.363281 10.652344 C 80.683594 11.714844 80.144531 12.800781 79.042969 13.363281 C 78.300781 13.726562 77.839844 13.765625 72.929688 13.765625 C 67.621094 13.765625 67.621094 13.765625 66.519531 14.289062 C 64.375 15.3125 63.132812 17.0625 63.113281 19.050781 C 63.113281 20.417969 63.492188 21.324219 64.394531 22.003906 C 65.976562 23.210938 68.082031 22.769531 69.265625 21.019531 C 69.726562 20.335938 69.824219 19.976562 69.824219 18.949219 C 69.824219 17.464844 69.363281 16.820312 68.324219 16.820312 C 67.421875 16.820312 67.160156 17.183594 67.660156 17.726562 C 68.761719 18.949219 68.824219 20.035156 67.839844 21.019531 C 67.339844 21.523438 66.980469 21.703125 66.480469 21.703125 C 64.035156 21.703125 63.914062 18.1875 66.296875 16.015625 C 67.601562 14.851562 68.222656 14.609375 70.265625 14.507812 L 72.109375 14.429688 L 71.707031 15.472656 C 71.027344 17.261719 70.746094 19.050781 70.484375 22.96875 L 70.246094 26.75 L 69.746094 26.847656 C 68.703125 27.089844 68.503906 27.171875 67.921875 27.671875 C 67.320312 28.175781 67.160156 28.617188 67.519531 28.839844 C 67.621094 28.898438 68.082031 28.675781 68.542969 28.335938 C 69.003906 28.015625 69.605469 27.734375 69.863281 27.734375 L 70.324219 27.734375 L 70.324219 30.949219 C 70.324219 32.695312 70.226562 34.625 70.105469 35.210938 C 69.664062 37.300781 68.421875 39.027344 67.621094 38.707031 C 67.441406 38.644531 67.160156 38.261719 67 37.882812 C 66.757812 37.320312 66.757812 36.996094 66.917969 36.355469 C 67.199219 35.328125 67.082031 34.96875 66.460938 34.96875 C 65.476562 34.96875 64.757812 36.433594 65.097656 37.722656 C 65.796875 40.332031 69.144531 40.453125 70.867188 37.921875 C 71.726562 36.636719 72.128906 34.726562 72.25 31.210938 L 72.347656 28.277344 L 73.691406 28.253906 C 75.316406 28.214844 76.316406 27.691406 76.835938 26.585938 C 77.136719 25.984375 77.136719 25.742188 76.957031 25.101562 C 76.597656 23.914062 75.234375 23.210938 74.433594 23.792969 C 74.050781 24.074219 74.074219 24.09375 74.695312 24.679688 C 75.476562 25.402344 75.496094 25.90625 74.8125 26.707031 C 74.394531 27.230469 74.152344 27.332031 73.472656 27.332031 C 73.011719 27.332031 72.53125 27.25 72.429688 27.171875 C 72.089844 26.949219 72.449219 17.0625 72.832031 15.734375 C 72.992188 15.171875 73.210938 14.648438 73.292969 14.609375 C 73.371094 14.570312 74.253906 14.609375 75.234375 14.730469 C 79.0625 15.132812 81.867188 13.925781 82.246094 11.695312 C 82.40625 10.730469 81.988281 9.605469 81.304688 9.164062 C 80.5625 8.703125 79.882812 8.601562 79.460938 8.902344 Z M 79.460938 8.902344 "/>
<path style=" stroke:none;fill-rule:nonzero;fill:rgb(0%,0%,0%);fill-opacity:1;" d="M 42.917969 10.589844 C 41.433594 12.179688 40.371094 15.355469 40.511719 17.84375 C 40.574219 19.191406 40.632812 19.394531 41.152344 19.816406 C 41.773438 20.378906 42.277344 20.316406 43.035156 19.632812 C 43.679688 19.050781 44.960938 16.378906 44.800781 15.976562 C 44.558594 15.332031 44.039062 15.777344 43.597656 17 C 42.996094 18.628906 42.355469 19.535156 41.816406 19.453125 C 41.214844 19.371094 41.054688 18.308594 41.375 16.480469 C 42.175781 11.898438 44.378906 9.203125 45.320312 11.65625 C 45.742188 12.742188 45.882812 15.996094 45.683594 19.796875 C 45.339844 26.085938 44.78125 29.621094 43.636719 32.476562 L 43.175781 33.660156 L 42.175781 33.78125 C 40.691406 33.964844 40.351562 34.105469 39.691406 34.886719 C 38.1875 36.59375 39.589844 38.324219 41.773438 37.480469 C 42.355469 37.277344 42.996094 36.777344 43.558594 36.132812 L 44.417969 35.128906 L 46.261719 36.054688 C 50.25 38.0625 53.597656 38.082031 55.578125 36.09375 C 56.519531 35.148438 56.800781 34.503906 56.402344 34.164062 C 55.859375 33.703125 55.058594 34.023438 54.578125 34.867188 C 53.734375 36.375 51.671875 36.976562 49.710938 36.273438 C 49.226562 36.113281 47.964844 35.550781 46.863281 35.027344 C 45.28125 34.285156 44.902344 34.023438 45 33.78125 C 45.082031 33.601562 45.441406 32.597656 45.800781 31.550781 C 46.964844 28.136719 47.503906 23.753906 47.546875 17.082031 C 47.585938 13.363281 47.523438 12.621094 47.222656 11.714844 C 46.722656 10.289062 46.121094 9.847656 44.71875 9.847656 C 43.71875 9.847656 43.578125 9.90625 42.917969 10.589844 Z M 42.476562 34.925781 C 42.476562 35.167969 41.273438 36.574219 41.054688 36.574219 C 40.734375 36.574219 40.851562 35.832031 41.292969 35.289062 C 41.675781 34.808594 42.476562 34.566406 42.476562 34.925781 Z M 42.476562 34.925781 "/>
<path style=" stroke:none;fill-rule:nonzero;fill:rgb(0%,0%,0%);fill-opacity:1;" d="M 121.496094 12.058594 C 118.632812 13.6875 116.589844 18.046875 115.707031 24.316406 C 114.445312 33.460938 116.890625 39.027344 122.21875 39.066406 C 124.082031 39.085938 125.363281 38.625 126.246094 37.621094 C 127.609375 36.074219 128.730469 32.675781 128.089844 32.035156 C 127.730469 31.691406 127.148438 31.671875 126.867188 31.992188 C 126.765625 32.132812 126.566406 32.796875 126.425781 33.460938 C 125.425781 38.40625 121.277344 39.648438 119.011719 35.710938 C 117.289062 32.738281 117.050781 28.457031 118.210938 21.605469 C 119.171875 15.917969 121.335938 12.058594 123.5625 12.058594 C 125.726562 12.058594 126.828125 14.148438 126.828125 18.1875 C 126.808594 21.28125 126.265625 24.4375 125.566406 25.421875 C 125.304688 25.742188 125.183594 25.761719 124.761719 25.582031 C 124.003906 25.242188 123.742188 23.792969 123.882812 20.757812 C 123.960938 18.507812 123.941406 18.269531 123.640625 18.328125 C 122.898438 18.46875 122.558594 22.347656 123.121094 24.257812 C 123.460938 25.382812 124.261719 26.328125 124.902344 26.328125 C 126.828125 26.328125 128.210938 23.03125 128.230469 18.46875 C 128.230469 16.882812 128.128906 15.976562 127.828125 15.03125 C 126.847656 11.835938 124.101562 10.550781 121.496094 12.058594 Z M 121.496094 12.058594 "/>
<path style=" stroke:none;fill-rule:nonzero;fill:rgb(0%,0%,0%);fill-opacity:1;" d="M 98.015625 13.585938 C 96.671875 14.648438 95.410156 17.925781 94.628906 22.308594 C 93.789062 27.128906 93.769531 35.007812 94.609375 38.324219 C 94.710938 38.785156 95.03125 39.410156 95.3125 39.710938 C 95.730469 40.171875 95.910156 40.234375 96.613281 40.132812 C 98.214844 39.910156 99.238281 38.164062 99.257812 35.570312 C 99.277344 34.503906 99.175781 34.082031 98.738281 33.320312 C 98.234375 32.394531 98.214844 32.375 98.617188 32.234375 C 98.835938 32.175781 99.476562 31.730469 100.058594 31.25 L 101.121094 30.386719 L 101.242188 31.351562 C 101.402344 32.675781 101.84375 33.480469 102.582031 33.742188 C 103.644531 34.105469 104.566406 33.441406 105.207031 31.832031 L 105.449219 31.25 L 105.628906 31.992188 C 105.988281 33.421875 107.152344 33.902344 108.152344 33.058594 C 108.632812 32.65625 108.914062 32.09375 109.375 30.6875 C 109.996094 28.699219 110.359375 26.527344 110.058594 26.527344 C 109.957031 26.527344 109.714844 27.191406 109.515625 27.996094 C 109.15625 29.523438 108.054688 31.972656 107.652344 32.09375 C 107.332031 32.214844 107.132812 29.382812 107.210938 26.1875 L 107.292969 23.613281 L 106.792969 23.554688 C 106.511719 23.511719 105.988281 23.351562 105.609375 23.171875 C 105.046875 22.929688 104.789062 22.910156 104.167969 23.089844 C 103.085938 23.414062 102.464844 24.296875 101.863281 26.285156 C 101.082031 28.917969 100.980469 29.101562 99.980469 30.144531 C 98.835938 31.332031 97.65625 31.953125 96.574219 31.953125 L 95.773438 31.953125 L 95.773438 30.648438 C 95.773438 29.402344 95.8125 29.28125 96.992188 27.492188 C 98.578125 25.082031 99.175781 23.855469 100.058594 21.363281 C 100.980469 18.691406 101.320312 16.398438 101 14.953125 C 100.582031 13.144531 99.316406 12.558594 98.015625 13.585938 Z M 100 14.8125 C 100.28125 15.535156 100.097656 18.386719 99.679688 19.996094 C 99.5 20.660156 98.957031 22.027344 98.476562 23.03125 C 97.636719 24.859375 96.011719 27.453125 95.851562 27.269531 C 95.671875 27.089844 96.414062 21.765625 96.894531 19.914062 C 97.554688 17.324219 99.015625 14.269531 99.597656 14.269531 C 99.699219 14.269531 99.878906 14.507812 100 14.8125 Z M 105.089844 24.738281 C 105.390625 25.28125 105.390625 25.480469 105.089844 26.988281 C 104.667969 29.019531 103.625 32.355469 103.40625 32.355469 C 102.945312 32.355469 102.863281 29.664062 103.265625 27.734375 C 103.546875 26.507812 104.46875 24.117188 104.6875 24.117188 C 104.726562 24.117188 104.929688 24.398438 105.089844 24.738281 Z M 98.035156 33.378906 C 98.796875 34.828125 98.074219 39.1875 97.074219 39.1875 C 96.59375 39.1875 96.371094 38.484375 96.050781 36.03125 C 95.652344 32.675781 95.632812 32.796875 96.53125 32.695312 C 97.59375 32.597656 97.636719 32.617188 98.035156 33.378906 Z M 98.035156 33.378906 "/>
<path style=" stroke:none;fill-rule:nonzero;fill:rgb(0%,0%,0%);fill-opacity:1;" d="M 150.390625 13.867188 C 150.109375 14.207031 149.609375 15.234375 149.246094 16.175781 L 148.605469 17.867188 L 147.785156 17.925781 C 147.203125 17.964844 146.941406 18.085938 146.902344 18.328125 C 146.84375 18.609375 146.964844 18.628906 147.683594 18.550781 C 148.507812 18.429688 148.527344 18.449219 148.386719 18.910156 C 147.683594 21.484375 147.425781 28.074219 147.945312 30.585938 C 148.484375 33.058594 149.347656 34.164062 150.789062 34.164062 C 151.53125 34.164062 151.730469 34.0625 152.152344 33.519531 C 152.414062 33.160156 152.753906 32.476562 152.894531 31.992188 C 153.132812 31.167969 153.476562 30.847656 153.476562 31.449219 C 153.476562 31.972656 154.234375 33.320312 154.71875 33.640625 C 154.957031 33.824219 155.5 33.964844 155.898438 33.964844 C 156.480469 33.964844 156.761719 33.824219 157.160156 33.359375 C 157.601562 32.816406 158.484375 30.527344 158.484375 29.863281 C 158.484375 29.742188 158.84375 29.441406 159.285156 29.179688 L 160.085938 28.71875 L 160.085938 30.34375 C 160.085938 32.796875 160.789062 34.042969 162.191406 34.042969 C 163.011719 34.042969 163.574219 33.5625 164.195312 32.355469 L 164.636719 31.472656 L 164.773438 32.09375 C 165.09375 33.480469 166.636719 34.34375 168.382812 34.082031 C 169.34375 33.921875 170.40625 33.21875 170.605469 32.554688 C 170.824219 31.851562 170.144531 30.828125 168.84375 29.921875 C 167.300781 28.859375 166.796875 28.277344 166.476562 27.171875 C 166.199219 26.144531 166.5 24.800781 167.21875 24.015625 C 167.800781 23.390625 168.121094 23.390625 168.84375 23.996094 C 169.382812 24.476562 169.402344 24.539062 169.402344 26.46875 C 169.402344 28.277344 169.445312 28.4375 169.785156 28.4375 C 170.34375 28.4375 170.90625 27.351562 171.027344 26.085938 C 171.246094 23.933594 169.824219 22.40625 167.78125 22.566406 C 166.417969 22.667969 165.578125 23.292969 164.957031 24.679688 C 164.433594 25.785156 164.433594 26.066406 164.816406 28.09375 C 164.976562 28.878906 164.09375 31.832031 163.472656 32.617188 C 162.910156 33.359375 162.53125 33.300781 162.152344 32.414062 C 161.910156 31.792969 161.871094 30.988281 161.929688 28.054688 C 161.96875 25.421875 162.070312 24.417969 162.25 24.355469 C 162.671875 24.214844 162.511719 23.734375 162.03125 23.613281 C 161.769531 23.53125 161.167969 23.511719 160.667969 23.554688 C 160.027344 23.59375 159.765625 23.714844 159.726562 23.953125 C 159.6875 24.175781 159.785156 24.316406 159.988281 24.316406 C 160.265625 24.316406 160.285156 24.539062 160.167969 26.164062 C 160.066406 27.734375 159.964844 28.09375 159.605469 28.375 C 158.882812 28.980469 158.683594 28.839844 158.683594 27.714844 C 158.683594 26.023438 158.304688 24.960938 157.363281 23.953125 C 156.539062 23.109375 156.441406 23.070312 155.679688 23.171875 C 154.015625 23.390625 153.074219 25.039062 153.074219 27.671875 C 153.074219 30.40625 151.910156 33.441406 150.992188 33.097656 C 149.667969 32.578125 149.066406 26.890625 149.769531 21.664062 C 150.210938 18.429688 150.070312 18.667969 151.652344 18.808594 C 152.773438 18.910156 153.054688 18.890625 153.335938 18.589844 C 153.777344 18.167969 153.675781 17.765625 153.15625 17.84375 C 151.289062 18.105469 150.710938 18.105469 150.589844 17.90625 C 150.410156 17.644531 151.351562 14.710938 151.773438 14.148438 C 152.210938 13.546875 152.132812 13.261719 151.492188 13.261719 C 151.089844 13.261719 150.75 13.445312 150.390625 13.867188 Z M 156.519531 24.316406 C 156.980469 24.941406 157.34375 27.148438 157.179688 28.277344 C 157.082031 29.019531 156.980469 29.140625 156.558594 29.140625 C 155.71875 29.140625 154.675781 28.597656 154.675781 28.15625 C 154.675781 27.933594 154.578125 27.691406 154.457031 27.632812 C 154.175781 27.453125 154.417969 25.644531 154.816406 24.820312 C 155.457031 23.554688 155.859375 23.433594 156.519531 24.316406 Z M 167.78125 30.910156 C 168.621094 31.492188 168.722656 31.632812 168.660156 32.214844 C 168.621094 32.695312 168.480469 32.898438 168.0625 33.039062 C 167.378906 33.28125 166.777344 32.796875 166.539062 31.871094 C 166.398438 31.332031 166.277344 31.25 165.554688 31.191406 L 164.753906 31.128906 L 165.054688 30.042969 L 165.355469 28.960938 L 166.097656 29.601562 C 166.5 29.945312 167.257812 30.546875 167.78125 30.910156 Z M 156.921875 30.0625 C 157.121094 30.246094 156.539062 32.375 156.21875 32.71875 C 155.960938 32.957031 155.839844 32.976562 155.597656 32.777344 C 155.238281 32.476562 154.878906 31.332031 154.878906 30.488281 C 154.878906 29.964844 154.917969 29.945312 155.839844 29.945312 C 156.378906 29.945312 156.859375 30.003906 156.921875 30.0625 Z M 156.921875 30.0625 "/>
<path style=" stroke:none;fill-rule:nonzero;fill:rgb(0%,0%,0%);fill-opacity:1;" d="M 112.199219 14.066406 C 112.199219 14.429688 112.359375 14.8125 112.601562 15.011719 C 112.84375 15.234375 113.003906 15.613281 113.003906 16.015625 C 113.003906 16.359375 113.101562 16.71875 113.203125 16.78125 C 113.523438 16.980469 113.441406 14.953125 113.121094 14.167969 C 112.742188 13.285156 112.199219 13.222656 112.199219 14.066406 Z M 112.199219 14.066406 "/>
<path style=" stroke:none;fill-rule:nonzero;fill:rgb(0%,0%,0%);fill-opacity:1;" d="M 29.691406 19.894531 C 29.691406 20.175781 29.734375 20.277344 29.792969 20.136719 C 29.832031 20.015625 29.832031 19.773438 29.792969 19.632812 C 29.734375 19.511719 29.691406 19.613281 29.691406 19.894531 Z M 29.691406 19.894531 "/>
<path style=" stroke:none;fill-rule:nonzero;fill:rgb(0%,0%,0%);fill-opacity:1;" d="M 90.800781 20.558594 C 90.222656 21.160156 89.121094 23.875 88.457031 26.328125 C 87.636719 29.300781 87.578125 29.300781 87.578125 26.367188 L 87.558594 23.714844 L 87.074219 23.714844 C 86.816406 23.714844 86.496094 23.835938 86.375 23.996094 C 86.234375 24.15625 85.992188 25.382812 85.855469 26.726562 C 85.613281 28.777344 85.433594 29.421875 84.851562 30.667969 C 84.453125 31.492188 84.050781 32.15625 83.96875 32.15625 C 83.648438 32.15625 83.488281 30.488281 83.53125 27.53125 C 83.550781 25.925781 83.589844 24.457031 83.609375 24.238281 C 83.648438 23.8125 83.449219 23.671875 81.945312 23.210938 C 80.945312 22.890625 80.785156 22.890625 80.101562 23.171875 C 79.183594 23.554688 78.5 24.699219 77.960938 26.808594 C 77.417969 28.878906 77.378906 31.753906 77.898438 32.757812 C 78.699219 34.386719 80.304688 34.203125 81.164062 32.394531 L 81.644531 31.410156 L 82.046875 32.234375 C 82.886719 33.964844 84.269531 33.863281 85.152344 32.011719 C 85.695312 30.847656 85.953125 30.667969 85.953125 31.449219 C 85.953125 31.710938 86.09375 32.316406 86.273438 32.757812 C 86.535156 33.421875 86.695312 33.5625 87.15625 33.5625 C 87.695312 33.5625 87.71875 33.539062 88.617188 29.863281 C 89.601562 26.003906 90.5625 23.03125 91.082031 22.386719 C 91.363281 22.046875 91.382812 22.144531 91.285156 23.511719 C 91.242188 24.335938 91.042969 26.066406 90.863281 27.332031 C 90.441406 30.265625 90.402344 34.363281 90.78125 35.46875 C 91.125 36.476562 92.285156 37.160156 93.148438 36.855469 C 93.808594 36.617188 93.90625 36.132812 93.328125 35.871094 C 93.066406 35.75 92.726562 35.390625 92.566406 35.066406 C 92.085938 34.125 92.207031 30.265625 92.847656 26.40625 C 93.425781 22.828125 93.46875 22.003906 93.167969 21.183594 C 92.726562 20.054688 91.5625 19.753906 90.800781 20.558594 Z M 81.464844 26.386719 C 81.304688 27.652344 80.585938 30.324219 80.042969 31.652344 C 79.742188 32.335938 79.683594 32.394531 79.503906 32.074219 C 79.382812 31.851562 79.320312 30.867188 79.382812 29.664062 C 79.480469 27.632812 80.003906 25.601562 80.683594 24.539062 L 81.003906 24.054688 L 81.285156 24.617188 C 81.507812 25.039062 81.546875 25.503906 81.464844 26.386719 Z M 81.464844 26.386719 "/>
<path style=" stroke:none;fill-rule:nonzero;fill:rgb(0%,0%,0%);fill-opacity:1;" d="M 144.800781 20.941406 C 144.097656 21.886719 143.136719 24.820312 142.554688 27.714844 L 142.292969 29.039062 L 142.273438 27.875 C 142.253906 27.25 142.394531 25.824219 142.554688 24.699219 C 142.875 22.566406 142.796875 22.105469 142.054688 21.703125 C 141.152344 21.222656 140.691406 21.441406 140.089844 22.648438 C 139.769531 23.292969 139.210938 24.660156 138.847656 25.683594 C 138.488281 26.707031 138.167969 27.511719 138.128906 27.492188 C 138.105469 27.453125 138.207031 26.667969 138.367188 25.742188 C 138.6875 23.835938 138.648438 23.511719 138.046875 23.511719 C 136.984375 23.511719 136.746094 24.015625 136.34375 26.96875 C 136.265625 27.652344 136.082031 28.035156 135.703125 28.335938 C 134.863281 29 134.722656 28.878906 134.679688 27.332031 C 134.640625 24.980469 133.660156 23.390625 132.097656 23.171875 C 131.433594 23.089844 131.195312 23.171875 130.632812 23.632812 C 129.550781 24.558594 129.191406 25.644531 129.210938 27.972656 C 129.25 30.847656 129.632812 32.414062 130.59375 33.398438 C 131.273438 34.144531 132.4375 34.183594 133.117188 33.5 C 133.578125 33.039062 134.441406 31.027344 134.441406 30.386719 C 134.441406 30.203125 134.519531 29.945312 134.601562 29.84375 C 134.742188 29.640625 135.964844 28.738281 136.082031 28.738281 C 136.125 28.738281 136.164062 29.703125 136.183594 30.910156 C 136.222656 33.5625 136.40625 34.164062 137.226562 34.164062 C 137.96875 34.164062 138.128906 33.921875 138.167969 32.65625 C 138.1875 31.351562 139.289062 27.070312 140.089844 25.179688 C 140.429688 24.355469 140.730469 23.734375 140.792969 23.773438 C 140.832031 23.835938 140.773438 25.019531 140.632812 26.445312 C 140.292969 30.226562 140.792969 31.652344 142.414062 31.511719 L 143.136719 31.449219 L 143.597656 28.636719 C 144.078125 25.785156 144.898438 22.628906 145.261719 22.40625 C 145.519531 22.246094 145.539062 22.003906 145.039062 28.335938 C 144.660156 33.039062 144.640625 34.042969 144.859375 35.046875 C 145.179688 36.574219 145.902344 37.378906 146.941406 37.378906 C 147.746094 37.378906 147.804688 37.277344 147.34375 36.757812 C 146.421875 35.730469 146.222656 32.496094 146.761719 27.230469 C 146.921875 25.683594 147.0625 23.671875 147.0625 22.75 C 147.0625 21.101562 147.0625 21.101562 146.421875 20.699219 C 145.539062 20.15625 145.359375 20.195312 144.800781 20.941406 Z M 132.476562 24.054688 C 133 24.679688 133.238281 25.722656 133.238281 27.453125 L 133.238281 29.140625 L 132.636719 29.140625 C 130.835938 29.140625 129.972656 27.390625 130.714844 25.261719 C 131.035156 24.417969 131.574219 23.714844 131.9375 23.714844 C 132.078125 23.714844 132.316406 23.875 132.476562 24.054688 Z M 132.976562 30.847656 C 132.816406 31.953125 132.296875 33.019531 131.976562 32.917969 C 131.65625 32.816406 131.09375 31.613281 130.972656 30.6875 L 130.855469 29.945312 L 133.097656 29.945312 Z M 132.976562 30.847656 "/>
<path style=" stroke:none;fill-rule:nonzero;fill:rgb(0%,0%,0%);fill-opacity:1;" d="M 160.285156 21.605469 C 159.886719 22.085938 160.386719 22.507812 161.390625 22.507812 C 162.390625 22.507812 162.890625 22.085938 162.492188 21.605469 C 162.351562 21.421875 161.910156 21.300781 161.390625 21.300781 C 160.867188 21.300781 160.425781 21.421875 160.285156 21.605469 Z M 160.285156 21.605469 "/>
<path style=" stroke:none;fill-rule:nonzero;fill:rgb(0%,0%,0%);fill-opacity:1;" d="M 174.390625 22.328125 C 173.050781 22.730469 171.867188 24.679688 171.488281 27.191406 C 171.046875 30.042969 171.648438 32.316406 173.089844 33.117188 C 175.214844 34.324219 177.21875 33.019531 178.679688 29.5 C 179.339844 27.894531 179.660156 26.527344 179.382812 26.527344 C 179.28125 26.527344 179 27.148438 178.761719 27.914062 C 177.898438 30.605469 176.09375 32.71875 174.914062 32.4375 C 174.230469 32.273438 173.570312 31.632812 173.410156 30.988281 C 173.351562 30.6875 173.25 30.285156 173.191406 30.085938 C 173.109375 29.824219 173.191406 29.742188 173.570312 29.742188 C 175.054688 29.742188 176.695312 27.25 176.875 24.757812 C 176.957031 23.53125 176.917969 23.332031 176.496094 22.851562 C 175.933594 22.226562 175.253906 22.066406 174.390625 22.328125 Z M 175.632812 23.351562 C 175.894531 23.773438 175.773438 25.664062 175.414062 26.707031 C 174.992188 27.996094 173.910156 29.261719 173.429688 29.078125 C 173.109375 28.960938 173.070312 28.777344 173.191406 27.671875 C 173.449219 25.199219 174.332031 23.109375 175.09375 23.109375 C 175.3125 23.109375 175.554688 23.230469 175.632812 23.351562 Z M 175.632812 23.351562 "/>
<path style=" stroke:none;fill-rule:nonzero;fill:rgb(0%,0%,0%);fill-opacity:1;" d="M 51.550781 23.230469 C 50.25 23.875 49.089844 27.269531 49.109375 30.34375 C 49.109375 32.296875 49.410156 33.140625 50.25 33.621094 C 50.890625 34.003906 50.972656 34.003906 51.613281 33.703125 C 52.074219 33.480469 52.433594 33.058594 52.734375 32.457031 C 53.195312 31.511719 53.496094 31.289062 53.496094 31.914062 C 53.496094 32.414062 54.058594 33.160156 54.617188 33.359375 C 55.300781 33.621094 56.019531 33.300781 56.5 32.515625 C 57.402344 31.050781 58.542969 25.824219 57.804688 26.566406 C 57.742188 26.609375 57.523438 27.351562 57.300781 28.214844 C 56.921875 29.722656 55.800781 32.15625 55.480469 32.15625 C 55.179688 32.15625 55.039062 29.863281 55.140625 26.789062 L 55.257812 23.714844 L 54.71875 23.59375 C 54.4375 23.53125 53.855469 23.351562 53.4375 23.191406 C 52.492188 22.828125 52.355469 22.851562 51.550781 23.230469 Z M 52.996094 26.648438 C 52.59375 28.71875 52.132812 30.40625 51.671875 31.492188 C 51.25 32.4375 51.25 32.4375 51.050781 31.953125 C 50.929688 31.671875 50.890625 30.605469 50.953125 29.542969 C 51.050781 27.691406 51.453125 26.164062 52.195312 24.71875 L 52.535156 24.074219 L 52.894531 24.679688 C 53.234375 25.222656 53.234375 25.382812 52.996094 26.648438 Z M 52.996094 26.648438 "/>
<path style=" stroke:none;fill-rule:nonzero;fill:rgb(0%,0%,0%);fill-opacity:1;" d="M 25.164062 24.355469 C 25.042969 24.917969 25.125 25.320312 25.324219 25.101562 C 25.527344 24.878906 25.664062 23.714844 25.484375 23.714844 C 25.386719 23.714844 25.246094 23.996094 25.164062 24.355469 Z M 25.164062 24.355469 "/>
</g>
</svg>
