<?xml version="1.0" standalone="no"?>
<!DOCTYPE svg PUBLIC "-//W3C//DTD SVG 20010904//EN"
 "http://www.w3.org/TR/2001/REC-SVG-20010904/DTD/svg10.dtd">
<svg version="1.0" xmlns="http://www.w3.org/2000/svg"
 width="1003.000000pt" height="249.000000pt" viewBox="0 0 1003.000000 249.000000"
 preserveAspectRatio="xMidYMid meet">

<g transform="translate(0.000000,249.000000) scale(0.100000,-0.100000)"
fill="#000000" stroke="none">
<path d="M975 2341 l-50 -6 43 -28 c23 -15 42 -32 42 -38 0 -6 6 -9 14 -6 8 3
16 1 19 -6 2 -6 19 -12 38 -12 19 -1 49 -4 67 -9 24 -6 32 -4 32 6 0 10 30 13
139 13 l140 0 30 -29 c30 -29 41 -69 21 -79 -6 -3 -5 -4 2 -3 7 2 18 -4 25
-13 11 -15 12 -14 13 1 0 9 -6 19 -12 22 -10 5 -10 7 0 12 6 3 12 12 12 20 0
24 -28 71 -47 78 -13 5 -11 0 7 -19 l25 -26 -49 27 c-47 26 -50 26 -162 20
l-114 -7 -52 31 c-44 27 -127 64 -132 58 0 0 -23 -4 -51 -7z m55 -31 c0 -5 -5
-10 -11 -10 -5 0 -7 5 -4 10 3 6 8 10 11 10 2 0 4 -4 4 -10z m37 -22 c-3 -8
-6 -5 -6 6 -1 11 2 17 5 13 3 -3 4 -12 1 -19z"/>
<path d="M1325 2232 c-27 -2 -54 -7 -59 -12 -6 -6 21 -7 70 -4 76 6 81 5 112
-21 17 -15 32 -22 32 -17 0 15 -50 48 -80 53 -14 3 -47 3 -75 1z"/>
<path d="M1481 2148 c0 -9 -12 -37 -25 -62 -20 -37 -22 -46 -9 -46 10 0 13 -6
9 -16 -3 -9 -6 -20 -6 -25 0 -4 -7 -6 -15 -3 -15 6 -20 -9 -16 -53 1 -13 -2
-23 -7 -23 -6 0 -12 -9 -15 -20 -3 -11 -1 -20 4 -20 5 0 9 5 9 12 0 6 3 9 6 5
9 -8 -6 -48 -16 -42 -5 3 -12 0 -16 -6 -3 -6 -1 -15 7 -19 11 -7 10 -22 -6
-82 -10 -40 -25 -79 -32 -86 -7 -7 -13 -24 -13 -37 0 -29 -31 -128 -43 -136
-5 -3 -1 -13 7 -22 18 -17 22 -32 6 -22 -12 7 -24 -38 -17 -65 3 -11 -1 -21
-9 -24 -8 -3 -14 -10 -14 -15 0 -6 7 -8 15 -5 18 7 19 12 -4 -71 -10 -39 -24
-101 -31 -138 -7 -37 -15 -66 -18 -63 -2 3 -13 1 -23 -5 -24 -12 -25 -46 -1
-52 13 -4 12 -5 -5 -6 -27 -1 -40 -20 -22 -32 11 -8 10 -12 -5 -24 -11 -8 -14
-15 -8 -15 23 0 12 -30 -13 -36 -14 -3 -25 -11 -25 -16 0 -6 9 -8 20 -5 23 6
28 -18 5 -27 -8 -3 -12 -12 -9 -21 3 -8 1 -15 -5 -15 -8 0 -9 -5 -1 -19 12
-24 13 -34 1 -27 -14 9 -23 -27 -9 -36 11 -6 11 -10 0 -16 -7 -5 -17 -23 -22
-42 -5 -18 -7 -30 -3 -27 3 4 19 -3 35 -14 29 -21 36 -58 11 -66 -7 -3 -10 3
-7 14 3 12 -3 22 -20 29 -22 10 -26 9 -31 -6 -3 -10 -18 -23 -34 -28 -26 -9
-27 -12 -26 -73 1 -52 5 -64 21 -70 10 -3 22 -5 26 -3 3 2 23 -25 43 -61 19
-36 44 -69 53 -74 28 -14 132 -21 160 -10 69 26 112 95 142 226 53 228 106
369 167 450 33 43 57 49 89 24 35 -28 52 -26 66 5 23 50 -31 188 -106 271 -51
57 -79 71 -101 53 -21 -17 -19 -49 6 -104 11 -25 17 -51 14 -56 -3 -5 -2 -18
4 -28 7 -14 4 -28 -14 -58 -61 -103 -93 -161 -99 -181 -8 -26 -26 -31 -26 -8
0 9 -9 15 -21 15 -19 0 -21 4 -15 30 3 19 2 29 -4 25 -12 -7 -12 3 0 30 l9 20
1 -20 c1 -12 9 0 21 30 31 75 96 158 120 152 16 -4 19 -2 13 16 -16 52 -20 51
-73 -12 -28 -34 -51 -66 -51 -72 0 -5 -7 -9 -15 -9 -8 0 -15 9 -15 19 0 11 -7
26 -15 35 -13 13 -13 22 0 86 8 39 15 73 15 76 0 2 9 4 19 4 24 0 35 31 26 76
-5 28 -10 34 -24 29 -14 -4 -20 1 -24 25 -4 16 -4 37 0 46 3 9 0 20 -8 25 -11
7 -11 9 2 9 12 0 15 7 11 26 -4 23 -2 25 17 19 19 -6 21 -3 20 27 -1 34 -16
93 -18 71 -1 -7 -5 -13 -10 -13 -6 0 -9 9 -8 21 1 15 7 19 20 15 15 -4 18 -1
13 17 -7 29 13 147 26 147 5 0 7 4 4 9 -3 4 -1 22 4 39 5 21 5 34 -2 38 -16
10 -29 -18 -23 -53 3 -17 1 -34 -4 -38 -6 -3 -15 -32 -22 -64 -6 -32 -15 -64
-19 -72 -18 -29 -19 0 -1 74 11 47 14 77 8 77 -6 0 -3 8 6 18 10 11 17 35 17
57 0 42 19 105 32 105 4 0 5 -15 2 -32 -4 -25 -3 -29 5 -18 6 8 11 23 11 33 0
10 8 17 19 17 28 0 35 17 11 25 -11 4 -20 16 -21 28 -1 17 -2 18 -6 5 -7 -28
-21 -21 -15 7 3 18 0 25 -11 25 -9 0 -18 10 -20 23 -3 13 -5 15 -6 5z m5 -128
l-15 -35 -1 38 c0 20 6 46 13 58 12 19 12 19 15 -3 2 -13 -4 -39 -12 -58z
m-16 -65 c0 -10 -29 -75 -33 -75 -3 0 0 18 5 40 6 22 14 40 19 40 5 0 9 -2 9
-5z m-35 -153 c-2 -9 -4 -19 -5 -22 -1 -3 -2 -9 -1 -14 3 -12 -31 -88 -36 -82
-7 7 29 146 37 141 4 -3 7 -13 5 -23z m15 -213 c0 -5 6 -7 13 -3 6 4 9 3 4 -1
-10 -12 -47 -17 -47 -7 0 11 11 22 22 22 4 0 8 -5 8 -11z m-10 -45 c0 -9 -5
-14 -12 -12 -18 6 -21 28 -4 28 9 0 16 -7 16 -16z m-34 -39 c-3 -9 -11 -13
-16 -10 -8 5 -7 11 1 21 14 18 24 11 15 -11z m-73 -5 c-3 -11 -7 -20 -9 -20
-2 0 -4 9 -4 20 0 11 4 20 9 20 5 0 7 -9 4 -20z m97 -20 c0 -5 -8 -10 -17 -10
-15 0 -16 2 -3 10 19 12 20 12 20 0z m-7 -47 c-7 -2 -19 -2 -25 0 -7 3 -2 5
12 5 14 0 19 -2 13 -5z m-103 -7 c0 -3 -4 -8 -10 -11 -5 -3 -10 -1 -10 4 0 6
5 11 10 11 6 0 10 -2 10 -4z m68 -24 c2 -7 -3 -12 -12 -12 -9 0 -16 7 -16 16
0 17 22 14 28 -4z m67 -22 c-3 -5 -12 -10 -20 -10 -8 0 -17 5 -20 10 -4 6 5
10 20 10 15 0 24 -4 20 -10z m-99 -57 c3 -30 -11 -53 -32 -53 -9 0 -14 12 -14
35 0 26 3 33 15 29 10 -4 15 0 15 12 0 26 13 8 16 -23z m39 -3 c3 -5 2 -10 -4
-10 -5 0 -13 5 -16 10 -3 6 -2 10 4 10 5 0 13 -4 16 -10z m37 -32 c-2 -24 -9
-47 -14 -53 -7 -7 -8 -3 -4 11 4 13 1 26 -9 34 -13 11 -12 14 8 31 12 10 22
18 22 19 0 0 -1 -19 -3 -42z m-52 -22 c0 -8 -4 -18 -10 -21 -5 -3 -10 3 -10
14 0 12 5 21 10 21 6 0 10 -6 10 -14z m348 -82 c37 -56 42 -98 13 -114 -24
-12 -33 -1 -31 38 3 45 1 54 -14 49 -13 -5 -44 21 -61 53 -5 9 1 7 15 -5 22
-18 23 -19 17 -2 -8 22 0 40 16 34 7 -2 27 -26 45 -53z m-393 36 c3 -5 -1 -10
-10 -10 -9 0 -13 5 -10 10 3 6 8 10 10 10 2 0 7 -4 10 -10z m-38 -22 c-3 -8
-6 -5 -6 6 -1 11 2 17 5 13 3 -3 4 -12 1 -19z m23 -39 c-7 -11 -14 -19 -16
-16 -7 7 7 37 17 37 6 0 5 -9 -1 -21z m-36 -28 c-4 -17 -9 -30 -11 -27 -3 2
-2 19 2 36 9 41 17 33 9 -9z m121 29 c3 -5 -1 -10 -9 -10 -8 0 -18 5 -21 10
-3 6 1 10 9 10 8 0 18 -4 21 -10z m-5 -42 c0 -7 -5 -20 -10 -28 -8 -12 -10 -9
-10 13 0 15 5 27 10 27 6 0 10 -6 10 -12z m36 -34 c-3 -8 -10 -14 -16 -14 -11
0 -14 43 -3 54 10 10 26 -23 19 -40z m-140 -29 c-8 -8 -18 -15 -22 -15 -3 0
-1 7 6 15 7 8 17 15 22 15 5 0 3 -7 -6 -15z m89 5 c3 -5 1 -10 -4 -10 -6 0
-11 5 -11 10 0 6 2 10 4 10 3 0 8 -4 11 -10z m65 -9 c0 -5 -11 -39 -25 -75
-14 -37 -25 -74 -24 -84 0 -10 3 -12 6 -4 2 6 10 12 16 12 5 0 7 -3 4 -7 -4
-3 2 -12 13 -20 11 -8 20 -22 20 -32 0 -9 4 -21 9 -26 11 -13 -45 -215 -65
-235 -13 -13 -14 -13 -8 3 3 9 3 24 0 33 -5 13 -9 14 -21 4 -8 -7 -13 -16 -10
-20 7 -11 -5 -40 -16 -40 -6 0 -6 7 0 18 6 12 4 28 -9 54 -15 32 -16 39 -4 49
8 6 27 9 44 5 34 -6 37 -2 14 22 -15 14 -15 17 0 28 15 10 15 12 1 18 -31 12
-38 56 -20 139 9 43 14 89 11 103 -5 19 -1 31 15 45 23 20 49 25 49 10z m-110
-25 c0 -8 -4 -18 -10 -21 -5 -3 -10 3 -10 14 0 12 5 21 10 21 6 0 10 -6 10
-14z m-30 -15 c0 -11 5 -21 12 -23 6 -2 8 -10 4 -16 -10 -16 -26 -15 -26 2 0
8 -5 16 -11 18 -12 4 -1 38 12 38 5 0 9 -9 9 -19z m-30 -45 c0 -7 -9 -21 -21
-32 -17 -15 -20 -26 -14 -61 4 -28 1 -51 -8 -70 -8 -15 -18 -52 -22 -80 -4
-29 -12 -56 -17 -59 -6 -4 -9 -1 -6 7 3 8 -3 25 -13 38 -31 39 -18 59 15 25
22 -21 21 3 0 27 -13 15 -14 23 -4 53 12 39 31 41 24 3 -3 -14 0 -11 7 8 8 19
8 30 2 32 -12 4 6 83 19 83 4 0 8 8 8 18 0 10 3 22 6 25 9 9 24 -2 24 -17z
m68 -6 c-7 -11 -16 -20 -20 -20 -5 0 -3 9 4 20 7 11 16 20 20 20 5 0 3 -9 -4
-20z m-28 -40 c0 -5 -4 -10 -10 -10 -5 0 -10 5 -10 10 0 6 5 10 10 10 6 0 10
-4 10 -10z m-33 -147 c-3 -3 -11 -2 -17 2 -9 6 -9 10 1 16 14 8 27 -7 16 -18z
m-44 2 c-3 -9 -8 -14 -10 -11 -3 3 -2 9 2 15 9 16 15 13 8 -4z m116 -38 c-12
-42 -23 -48 -15 -8 3 18 6 41 6 50 0 13 2 13 9 2 5 -8 5 -27 0 -44z m-189 -62
c7 -9 11 -18 8 -21 -8 -8 -58 18 -52 27 8 14 30 10 44 -6z m-90 -131 c0 -8 -4
-12 -10 -9 -5 3 -10 10 -10 16 0 5 5 9 10 9 6 0 10 -7 10 -16z m190 -4 c0 -5
-2 -10 -4 -10 -3 0 -8 5 -11 10 -3 6 -1 10 4 10 6 0 11 -4 11 -10z m35 -23 c0
-26 -20 -25 -23 2 -3 16 1 22 10 19 7 -3 13 -12 13 -21z m-45 -23 c0 -13 8
-15 49 -9 44 6 51 4 61 -15 7 -13 8 -20 2 -16 -6 3 -17 0 -25 -9 -13 -13 -17
-13 -27 0 -8 10 -21 13 -37 9 -16 -4 -28 -2 -34 7 -12 19 -11 49 1 49 6 0 10
-7 10 -16z m-42 -65 c42 -49 48 -63 24 -50 -27 15 -32 14 -32 -5 0 -10 -8 -6
-25 14 -28 33 -33 51 -10 32 9 -7 19 -10 23 -6 4 4 -1 13 -11 20 -19 15 -22
26 -6 26 6 0 22 -14 37 -31z m87 -30 c4 -6 5 -12 3 -14 -7 -7 -48 7 -48 16 0
13 37 11 45 -2z"/>
<path d="M1420 790 c0 -11 7 -20 15 -20 8 0 15 6 15 14 0 8 -7 16 -15 20 -10
4 -15 -1 -15 -14z"/>
<path d="M1406 654 c-8 -21 -8 -24 3 -24 5 0 11 9 14 20 6 24 -8 27 -17 4z"/>
<path d="M3966 2047 c-19 -14 -19 -15 7 -32 15 -10 32 -34 38 -55 16 -53 -11
-107 -66 -135 -37 -18 -60 -20 -305 -20 -265 0 -265 0 -320 -26 -107 -51 -169
-138 -170 -237 0 -68 19 -113 64 -147 79 -60 184 -38 243 49 23 34 28 52 28
103 0 74 -23 106 -75 106 -45 0 -58 -18 -33 -45 55 -61 58 -115 9 -164 -25
-25 -43 -34 -68 -34 -122 0 -128 175 -9 283 65 58 96 70 198 75 l92 4 -20 -52
c-34 -89 -48 -178 -61 -373 l-12 -188 -25 -5 c-52 -12 -62 -16 -91 -41 -30
-25 -38 -47 -20 -58 5 -3 28 8 51 25 23 16 53 30 66 30 l23 0 0 -160 c0 -87
-5 -183 -11 -212 -22 -104 -84 -190 -124 -174 -9 3 -23 22 -31 41 -12 28 -12
44 -4 76 14 51 8 69 -23 69 -49 0 -85 -73 -68 -137 35 -130 202 -136 288 -10
43 64 63 159 69 334 l5 146 67 1 c81 2 131 28 157 83 15 30 15 42 6 74 -18 59
-86 94 -126 65 -19 -14 -18 -15 13 -44 39 -36 40 -61 6 -101 -21 -26 -33 -31
-67 -31 -23 0 -47 4 -52 8 -17 11 1 503 20 569 8 28 19 54 23 56 4 2 48 0 97
-6 191 -20 331 40 350 151 8 48 -13 104 -47 126 -37 23 -71 28 -92 13z"/>
<path d="M2142 1963 c-74 -79 -127 -237 -120 -361 3 -67 6 -77 32 -98 31 -28
56 -25 94 9 32 29 96 162 88 182 -12 32 -38 10 -60 -51 -30 -81 -62 -126 -89
-122 -30 4 -38 57 -22 148 40 228 150 362 197 240 21 -54 28 -216 18 -405 -17
-313 -45 -489 -102 -631 l-23 -59 -50 -6 c-74 -9 -91 -16 -124 -55 -75 -85 -5
-171 104 -129 29 10 61 35 89 67 l43 50 92 -46 c199 -100 366 -101 465 -2 47
47 61 79 41 96 -27 23 -67 7 -91 -35 -42 -75 -145 -105 -243 -70 -24 8 -87 36
-142 62 -79 37 -98 50 -93 62 4 9 22 59 40 111 58 170 85 388 87 720 2 185 -1
222 -16 267 -25 71 -55 93 -125 93 -50 0 -57 -3 -90 -37z m-22 -1211 c0 -12
-60 -82 -71 -82 -16 0 -10 37 12 64 19 24 59 36 59 18z"/>
<path d="M6064 1890 c-143 -81 -245 -298 -289 -610 -63 -455 59 -732 325 -734
93 -1 157 22 201 72 68 77 124 246 92 278 -18 17 -47 18 -61 2 -5 -7 -15 -40
-22 -73 -50 -246 -257 -308 -370 -112 -86 148 -98 361 -40 702 48 283 156 475
267 475 108 0 163 -104 163 -305 -1 -154 -28 -311 -63 -360 -13 -16 -19 -17
-40 -8 -38 17 -51 89 -44 240 4 112 3 124 -12 121 -37 -7 -54 -200 -26 -295
17 -56 57 -103 89 -103 96 0 165 164 166 391 0 79 -5 124 -20 171 -49 159
-186 223 -316 148z"/>
<path d="M4892 1814 c-67 -53 -130 -216 -169 -434 -42 -240 -43 -632 -1 -797
5 -23 21 -54 35 -69 21 -23 30 -26 65 -21 80 11 131 98 132 227 1 53 -4 74
-26 112 -25 46 -26 47 -6 54 11 3 43 25 72 49 l53 43 6 -48 c8 -66 30 -106 67
-119 53 -18 99 15 131 95 l12 29 9 -37 c18 -71 76 -95 126 -53 24 20 38 48 61
118 31 99 49 207 34 207 -5 0 -17 -33 -27 -73 -18 -76 -73 -198 -93 -204 -16
-6 -26 135 -22 294 l4 128 -25 3 c-14 2 -40 10 -59 19 -28 12 -41 13 -72 4
-54 -16 -85 -60 -115 -159 -39 -131 -44 -140 -94 -192 -57 -59 -116 -90 -170
-90 l-40 0 0 65 c0 62 2 68 61 157 79 120 109 181 153 305 46 133 63 247 47
319 -21 90 -84 119 -149 68z m99 -61 c14 -36 5 -178 -16 -258 -9 -33 -36 -101
-60 -151 -42 -91 -123 -220 -131 -211 -9 9 28 274 52 366 33 129 106 281 135
281 5 0 14 -12 20 -27z m254 -494 c15 -27 15 -37 0 -112 -21 -101 -73 -267
-84 -267 -23 0 -27 134 -7 230 14 61 60 180 71 180 2 0 12 -14 20 -31z m-352
-430 c38 -72 2 -289 -48 -289 -24 0 -35 35 -51 157 -20 167 -21 161 24 166 53
5 55 4 75 -34z"/>
<path d="M7506 1800 c-14 -17 -39 -68 -57 -115 l-32 -84 -41 -3 c-29 -2 -42
-8 -44 -20 -3 -14 3 -15 39 -11 41 6 42 5 35 -18 -35 -128 -48 -456 -22 -581
27 -123 70 -178 142 -178 37 0 47 5 68 32 13 18 30 52 37 76 12 41 29 57 29
27 0 -26 38 -93 62 -109 12 -9 39 -16 59 -16 29 0 43 7 63 30 22 27 66 141 66
174 0 6 18 21 40 34 l40 23 0 -81 c0 -122 35 -184 105 -184 41 0 69 24 100 84
l22 44 7 -31 c16 -69 93 -112 180 -99 48 8 101 43 111 76 11 35 -23 86 -88
131 -77 53 -102 82 -118 137 -14 51 1 118 37 157 29 31 45 31 81 1 27 -24 28
-27 28 -123 0 -90 2 -98 19 -98 28 0 56 54 62 117 11 107 -60 183 -162 175
-68 -5 -110 -36 -141 -105 -26 -55 -26 -69 -7 -170 8 -39 -36 -186 -67 -225
-28 -37 -47 -34 -66 10 -12 31 -14 71 -11 217 2 131 7 181 16 184 21 7 13 31
-11 37 -13 4 -43 5 -68 3 -32 -2 -45 -8 -47 -20 -2 -11 3 -18 13 -18 14 0 15
-11 9 -92 -5 -78 -10 -96 -28 -110 -36 -30 -46 -23 -46 33 0 84 -19 137 -66
187 -41 42 -46 44 -84 39 -83 -11 -130 -93 -130 -224 0 -136 -58 -287 -104
-270 -66 26 -96 309 -61 569 22 161 15 149 94 142 56 -5 70 -4 84 11 22 21 17
41 -9 37 -93 -13 -122 -13 -128 -3 -9 13 38 159 59 187 22 30 18 44 -14 44
-20 0 -37 -9 -55 -30z m306 -520 c23 -31 41 -141 33 -197 -5 -37 -10 -43 -31
-43 -42 0 -94 27 -94 49 0 11 -5 23 -11 26 -14 9 -2 99 18 140 32 63 52 69 85
25z m562 -328 c42 -29 47 -36 44 -65 -2 -24 -9 -34 -30 -41 -34 -12 -64 12
-76 58 -7 27 -13 31 -49 34 l-40 3 15 54 15 54 37 -32 c20 -17 58 -47 84 -65z
m-542 42 c10 -9 -19 -115 -35 -132 -13 -12 -19 -13 -31 -3 -18 15 -36 72 -36
114 0 26 2 27 48 27 27 0 51 -3 54 -6z"/>
<path d="M5600 1790 c0 -18 8 -37 20 -47 12 -11 20 -30 20 -50 0 -17 5 -35 10
-38 16 -10 12 91 -4 130 -19 44 -46 47 -46 5z"/>
<path d="M1482 1500 c0 -14 2 -19 5 -12 2 6 2 18 0 25 -3 6 -5 1 -5 -13z"/>
<path d="M4532 1467 c-29 -30 -84 -165 -117 -287 -41 -148 -44 -148 -44 -2
l-1 132 -24 0 c-13 0 -29 -6 -35 -14 -7 -8 -19 -69 -26 -136 -12 -102 -21
-134 -50 -196 -20 -41 -40 -74 -44 -74 -16 0 -24 83 -22 230 1 80 3 153 4 164
2 21 -8 28 -83 51 -50 16 -58 16 -92 2 -46 -19 -80 -76 -107 -181 -27 -103
-29 -246 -3 -296 40 -81 120 -72 163 18 l24 49 20 -41 c42 -86 111 -81 155 11
27 58 40 67 40 28 0 -13 7 -43 16 -65 13 -33 21 -40 44 -40 27 0 28 1 73 184
49 192 97 340 123 372 14 17 15 12 10 -56 -2 -41 -12 -127 -21 -190 -21 -146
-23 -350 -4 -405 17 -50 75 -84 118 -69 33 12 38 36 9 49 -13 6 -30 24 -38 40
-24 47 -18 239 14 431 29 178 31 219 16 260 -22 56 -80 71 -118 31z m-466
-290 c-8 -63 -44 -196 -71 -262 -15 -34 -18 -37 -27 -21 -6 11 -9 60 -6 120 5
101 31 202 65 255 l16 24 14 -28 c11 -21 13 -44 9 -88z"/>
<path d="M7227 1448 c-35 -47 -83 -193 -112 -337 l-13 -66 -1 58 c-1 31 6 102
14 158 16 106 12 129 -25 149 -45 24 -68 13 -98 -47 -16 -32 -44 -100 -62
-151 -18 -51 -34 -91 -36 -90 -1 2 4 41 12 87 16 95 14 111 -16 111 -53 0 -65
-25 -85 -172 -4 -34 -13 -53 -32 -68 -42 -33 -49 -27 -51 50 -2 117 -51 196
-129 207 -33 4 -45 0 -73 -23 -54 -46 -72 -100 -71 -216 2 -143 21 -221 69
-270 34 -37 92 -39 126 -5 23 23 66 123 66 155 0 9 4 22 8 27 7 10 68 55 74
55 2 0 4 -48 5 -108 2 -132 11 -162 52 -162 37 0 45 12 47 75 1 65 56 278 96
372 17 41 32 72 35 70 2 -3 -1 -62 -8 -133 -17 -188 8 -259 89 -252 l36 3 23
140 c24 142 65 299 83 310 13 8 14 20 -11 -295 -19 -234 -20 -284 -9 -334 16
-76 52 -116 104 -116 40 0 43 5 20 31 -46 51 -56 212 -29 474 8 77 15 177 15
223 0 82 0 82 -32 102 -44 27 -53 25 -81 -12z m-615 -155 c26 -31 38 -83 38
-169 l0 -84 -30 0 c-90 0 -133 87 -96 193 16 42 43 77 61 77 7 0 19 -8 27 -17z
m25 -338 c-8 -55 -34 -108 -50 -103 -16 5 -44 65 -50 111 l-6 37 56 0 56 0 -6
-45z"/>
<path d="M8000 1415 c-20 -24 5 -45 55 -45 50 0 75 21 55 45 -7 9 -29 15 -55
15 -26 0 -48 -6 -55 -15z"/>
<path d="M8704 1379 c-67 -20 -126 -117 -145 -242 -22 -142 8 -255 80 -295
106 -60 206 5 279 180 33 80 49 148 35 148 -5 0 -19 -31 -31 -69 -43 -134
-133 -239 -192 -225 -34 8 -67 40 -75 72 -3 15 -8 35 -11 45 -4 13 0 17 19 17
74 0 156 124 165 248 4 61 2 71 -19 95 -28 31 -62 39 -105 26z m62 -51 c13
-21 7 -115 -11 -167 -21 -64 -75 -127 -99 -118 -16 6 -18 15 -12 70 13 123 57
227 95 227 11 0 23 -6 27 -12z"/>
<path d="M2573 1334 c-65 -32 -123 -201 -122 -354 0 -97 15 -139 57 -163 32
-19 36 -19 68 -4 23 11 41 32 56 62 23 47 38 58 38 27 0 -25 28 -62 56 -72 34
-13 70 3 94 42 45 73 102 333 65 296 -3 -2 -14 -39 -25 -82 -19 -75 -75 -196
-91 -196 -15 0 -22 114 -17 267 l6 153 -27 6 c-14 3 -43 12 -64 20 -47 18 -54
17 -94 -2z m72 -170 c-20 -103 -43 -187 -66 -241 -21 -47 -21 -47 -31 -23 -6
14 -8 67 -5 120 5 92 25 168 62 240 l17 32 18 -30 c17 -27 17 -35 5 -98z"/>
<path d="M1256 1278 c-6 -28 -2 -48 8 -37 10 11 17 69 8 69 -5 0 -12 -14 -16
-32z"/>
</g>
</svg>
